<svg width="133" height="33" viewBox="0 0 133 33" fill="none" xmlns="http://www.w3.org/2000/svg">
<path d="M53.854 8.556V24H50.092V14.738L46.638 24H43.602L40.126 14.716V24H36.364V8.556H40.808L45.142 19.248L49.432 8.556H53.854ZM60.3213 11.57V14.694H65.3593V17.598H60.3213V20.986H66.0193V24H56.5593V8.556H66.0193V11.57H60.3213ZM81.8377 8.556V24H78.0757V17.642H72.2237V24H68.4617V8.556H72.2237V14.606H78.0757V8.556H81.8377ZM91.8575 24.154C90.4055 24.154 89.0708 23.8167 87.8535 23.142C86.6508 22.4673 85.6901 21.5287 84.9715 20.326C84.2675 19.1087 83.9155 17.7447 83.9155 16.234C83.9155 14.7233 84.2675 13.3667 84.9715 12.164C85.6901 10.9613 86.6508 10.0227 87.8535 9.348C89.0708 8.67333 90.4055 8.336 91.8575 8.336C93.3095 8.336 94.6368 8.67333 95.8395 9.348C97.0568 10.0227 98.0101 10.9613 98.6995 12.164C99.4035 13.3667 99.7555 14.7233 99.7555 16.234C99.7555 17.7447 99.4035 19.1087 98.6995 20.326C97.9955 21.5287 97.0421 22.4673 95.8395 23.142C94.6368 23.8167 93.3095 24.154 91.8575 24.154ZM91.8575 20.722C93.0895 20.722 94.0721 20.3113 94.8055 19.49C95.5535 18.6687 95.9275 17.5833 95.9275 16.234C95.9275 14.87 95.5535 13.7847 94.8055 12.978C94.0721 12.1567 93.0895 11.746 91.8575 11.746C90.6108 11.746 89.6135 12.1493 88.8655 12.956C88.1321 13.7627 87.7655 14.8553 87.7655 16.234C87.7655 17.598 88.1321 18.6907 88.8655 19.512C89.6135 20.3187 90.6108 20.722 91.8575 20.722ZM119.338 8.556V24H115.576V14.738L112.122 24H109.086L105.61 14.716V24H101.848V8.556H106.292L110.626 19.248L114.916 8.556H119.338ZM125.806 11.57V14.694H130.844V17.598H125.806V20.986H131.504V24H122.044V8.556H131.504V11.57H125.806Z" fill="#E9DCDC"/>
<path d="M12.5 28.5V15.75M12.5 3V15.75M23 10L12.5 15.75M12.5 15.75L23 21.5M12.5 15.75L2 7.5" stroke="#468CF5" stroke-width="4" stroke-linecap="round"/>
</svg>
