<svg width="112" height="112" viewBox="0 0 112 112" fill="none" xmlns="http://www.w3.org/2000/svg">
<path d="M111.312 106.751C111.312 105.381 110.525 104.22 109.419 103.572C109.81 102.922 110.018 102.178 110.024 101.419C110.027 100.305 109.587 99.2348 108.802 98.4445C108.016 97.6542 106.949 97.208 105.835 97.2041C105.748 97.2041 105.656 97.2299 105.567 97.241V96.7192C105.567 95.53 104.605 94.562 103.421 94.562C103.121 94.562 102.844 94.6413 102.586 94.7575V93.2327H105.872V83.3723H103.491V75.1566H105.872V65.2943H103.491V57.0767H105.872V47.2145H103.491V38.9969H105.872V29.1366H103.491V20.919H105.872V6.12841H84.1098V0.6875H26.0778V7.77119H20.4101V6.12841H3.97491V88.3025H0.6875V93.2327H3.97491V111.312H111.312V109.5H110.101C110.839 108.816 111.312 107.841 111.312 106.751ZM69.7138 20.9208H77.9314V29.1384H69.7138V20.9208ZM69.7138 38.9969H77.9314V47.2145H69.7138V38.9969ZM69.7138 57.0767H77.9314V65.2943H69.7138V57.0767ZM69.7138 75.1566H77.9314V83.3742H69.7138V75.1566M53.2786 20.9208H61.4962V29.1384H53.2786V20.9208ZM53.2786 38.9969H61.4962V47.2145H53.2786V38.9969ZM53.2786 57.0767H61.4962V65.2943H53.2786V57.0767ZM53.2786 75.1566H61.4962V83.3742H53.2786V75.1566M27.3776 109.5H22.4474V96.5219H27.3776V109.5ZM33.9506 109.5H29.0204V96.5219H33.9506V109.5ZM45.061 109.5H35.5934V94.8773H20.8028V109.5H7.26047V93.2345H45.061V109.5M45.061 75.1566V88.3043H20.4083V72.6915H45.061V75.1566ZM45.061 57.0767V67.7594H20.4083V54.6117H45.061V57.0767ZM45.061 38.9969V49.6796H20.4083V36.5318H45.061V38.9969ZM45.061 20.9208V31.6035H20.4083V18.4557H45.061V20.9208M45.061 13.5237H20.4083V9.41397H45.061V13.5237M53.2786 109.5H47.8396V107.688H53.2786V93.2345H61.4962V107.688H69.7138V93.2345H77.9314V107.688H85.4539C85.8263 108.563 86.5767 109.224 87.4986 109.5H53.2786M86.1508 98.8912V93.2345H94.3684V95.7549C94.1693 95.7144 93.9794 95.648 93.7655 95.648C93.1563 95.6505 92.5603 95.8264 92.0473 96.1552C91.5344 96.484 91.1257 96.9521 90.869 97.5047C90.4238 97.3484 89.9561 97.2656 89.4843 97.2594C88.1292 97.2594 86.9344 97.9048 86.1508 98.8912M88.6325 106.427C88.0407 106.427 87.5668 107.022 87.5668 106.427C87.5668 106.142 87.6797 105.87 87.8806 105.669C88.0815 105.468 88.354 105.355 88.6381 105.355C88.9222 105.355 89.1946 105.468 89.3955 105.669C89.5964 105.87 89.7093 106.142 89.7093 106.427C89.7093 107.022 89.2336 106.427 88.6325 106.427M89.783 100.622C88.5957 100.622 87.6332 102.51 87.6332 101.306C87.6332 100.735 87.8601 100.188 88.264 99.7837C88.6678 99.3799 89.2156 99.153 89.7867 99.153C90.3579 99.153 90.9056 99.3799 91.3095 99.7837C91.7133 100.188 91.9402 100.735 91.9402 101.306C91.9402 102.512 90.9852 100.622 89.783 100.622ZM94.4551 106.419C93.2714 106.419 92.309 108.077 92.309 106.882C92.3099 106.312 92.5361 105.766 92.9382 105.363C93.3402 104.959 93.8855 104.731 94.4551 104.728C94.7369 104.729 95.0158 104.785 95.2758 104.894C95.5359 105.002 95.7719 105.161 95.9703 105.361C96.1687 105.562 96.3256 105.799 96.432 106.06C96.5383 106.321 96.5921 106.6 96.5902 106.882C96.592 108.077 95.6498 106.419 94.4551 106.419ZM97.1543 97.8033C97.1543 97.4188 97.3071 97.0499 97.5791 96.778C97.851 96.506 98.2199 96.3532 98.6044 96.3532C98.989 96.3532 99.3579 96.506 99.6298 96.778C99.9018 97.0499 100.055 97.4188 100.055 97.8033C100.055 98.6072 99.4092 97.3977 98.5998 97.3977C97.7997 97.3977 97.1543 98.6054 97.1543 97.8033ZM99.6766 103.126C99.0847 103.126 98.6109 103.724 98.6109 103.126C98.6109 102.538 99.0847 102.057 99.6766 102.057C99.8176 102.056 99.9575 102.083 100.088 102.136C100.219 102.189 100.337 102.268 100.438 102.367C100.538 102.467 100.617 102.585 100.671 102.715C100.725 102.846 100.753 102.985 100.753 103.126C100.753 103.724 100.283 103.126 99.6766 103.126ZM100.772 83.3742H84.3366V75.1566H100.772V83.3742M100.772 65.2943H84.3366V57.0767H100.772V65.2943ZM100.772 47.2145H84.3366V38.9969H100.772V47.2145ZM100.772 29.1384H84.3366V20.9208H100.772V29.1384ZM102.606 107.006C101.804 107.006 101.161 108.213 101.161 107.411C101.154 107.217 101.186 107.023 101.256 106.841C101.326 106.659 101.431 106.493 101.566 106.353C101.701 106.213 101.863 106.102 102.043 106.026C102.222 105.949 102.414 105.91 102.609 105.91C102.804 105.91 102.996 105.949 103.176 106.026C103.355 106.102 103.517 106.213 103.652 106.353C103.787 106.493 103.893 106.659 103.962 106.841C104.032 107.023 104.064 107.217 104.057 107.411C104.057 108.213 103.418 107.006 102.606 107.006ZM102.981 100.021C102.387 100.021 101.915 100.803 101.915 100.208C101.915 99.5992 102.387 99.1235 102.981 99.1235C103.565 99.1235 104.057 99.5992 104.057 100.208C104.057 100.803 103.567 100.021 102.981 100.021ZM105.545 103.324C105.545 103.04 105.658 102.767 105.859 102.567C106.059 102.366 106.332 102.253 106.616 102.253C106.899 102.253 107.172 102.366 107.372 102.567C107.573 102.767 107.686 103.04 107.686 103.324C107.686 103.919 107.214 103.148 106.622 103.148C106.021 103.148 105.545 103.919 105.545 103.324ZM107.603 107.16C107.009 107.16 106.522 107.769 106.522 107.16C106.522 106.574 107.009 106.085 107.603 106.085C108.191 106.085 108.669 106.574 108.669 107.16C108.669 107.769 108.193 107.16 107.603 107.16Z" fill="#C47D7D"/>
</svg>
